<svg width="61" height="53" viewBox="0 0 61 53" fill="none" xmlns="http://www.w3.org/2000/svg">
<g filter="url(#filter0_i_759_120)">
<path d="M26.3187 0C11.7844 0 0 11.754 0 26.2575C0 40.7568 11.7844 52.5149 26.3187 52.5149C40.8571 52.5149 52.6415 40.7568 52.6415 26.2575C52.6415 11.754 40.8571 0 26.3187 0ZM26.3187 43.8528C16.5773 43.8528 8.68031 35.9747 8.68031 26.2568C8.68031 16.5382 16.5773 8.66079 26.3187 8.66079C36.0607 8.66079 43.9591 16.5388 43.9591 26.2568C43.9591 35.9754 36.0601 43.8528 26.3187 43.8528Z" fill="white"/>
<path d="M60.1781 44.4751H54.0957V50.5429H60.1781V44.4751Z" fill="white"/>
</g>
<defs>
<filter id="filter0_i_759_120" x="0" y="0" width="60.1782" height="54.1587" filterUnits="userSpaceOnUse" color-interpolation-filters="sRGB">
<feFlood flood-opacity="0" result="BackgroundImageFix"/>
<feBlend mode="normal" in="SourceGraphic" in2="BackgroundImageFix" result="shape"/>
<feColorMatrix in="SourceAlpha" type="matrix" values="0 0 0 0 0 0 0 0 0 0 0 0 0 0 0 0 0 0 127 0" result="hardAlpha"/>
<feOffset dy="1.64385"/>
<feGaussianBlur stdDeviation="1.43483"/>
<feComposite in2="hardAlpha" operator="arithmetic" k2="-1" k3="1"/>
<feColorMatrix type="matrix" values="0 0 0 0 0 0 0 0 0 0 0 0 0 0 0 0 0 0 0.25 0"/>
<feBlend mode="normal" in2="shape" result="effect1_innerShadow_759_120"/>
</filter>
</defs>
</svg>
